<svg width="50" height="50" viewBox="0 0 50 50" fill="none" xmlns="http://www.w3.org/2000/svg">
<path d="M39.6152 11.4902C39.7618 11.3436 39.8441 11.1448 39.8441 10.9375C39.8441 10.7302 39.7618 10.5314 39.6152 10.3848C39.4686 10.2382 39.2698 10.1558 39.0624 10.1558C38.8551 10.1558 38.6563 10.2382 38.5097 10.3848L24.9999 23.8945L11.4902 10.3848C11.3436 10.2382 11.1448 10.1558 10.9374 10.1558C10.7301 10.1558 10.5313 10.2382 10.3847 10.3848C10.2381 10.5314 10.1558 10.7302 10.1558 10.9375C10.1558 11.1448 10.2381 11.3436 10.3847 11.4902L23.8945 25L10.3847 38.5098C10.2381 38.6564 10.1558 38.8552 10.1558 39.0625C10.1558 39.2698 10.2381 39.4686 10.3847 39.6152C10.5313 39.7618 10.7301 39.8442 10.9374 39.8442C11.1448 39.8442 11.3436 39.7618 11.4902 39.6152L24.9999 26.1055L38.5097 39.6152C38.5823 39.6878 38.6685 39.7454 38.7633 39.7847C38.8581 39.824 38.9598 39.8442 39.0624 39.8442C39.1651 39.8442 39.2667 39.824 39.3616 39.7847C39.4564 39.7454 39.5426 39.6878 39.6152 39.6152C39.6878 39.5426 39.7453 39.4565 39.7846 39.3616C39.8239 39.2668 39.8441 39.1651 39.8441 39.0625C39.8441 38.9598 39.8239 38.8582 39.7846 38.7634C39.7453 38.6685 39.6878 38.5823 39.6152 38.5098L26.1054 25L39.6152 11.4902Z" fill="white"/>
</svg>
