<svg width="45" height="55" viewBox="0 0 45 55" fill="none" xmlns="http://www.w3.org/2000/svg">
<g clip-path="url(#clip0_97_543)">
<path d="M45 22.4666C45 10.0512 34.9338 0 22.5 0C21.2613 0 20.0383 0.0939368 18.8467 0.297467V16.9399C18.8467 20.0085 16.3537 22.4822 13.2962 22.4822H7.30662V22.4666C7.30662 18.3803 8.9216 14.6855 11.5401 11.9613V2.83376C4.65679 6.68517 0 14.0279 0 22.4666V22.4822V29.778H14.77C21.0575 29.778 26.1533 24.6897 26.1533 18.4116V7.73413C32.7857 9.36237 37.6934 15.343 37.6934 22.4666V22.4822H33.4599C33.4599 26.5058 36.7369 29.778 40.7666 29.778H45V22.4822V22.4666Z" fill="url(#paint0_linear_97_543)"/>
<path d="M39.6681 35.1011C39.6681 39.1247 36.391 42.3968 32.3614 42.3968H5.33008C5.33008 38.3732 8.60708 35.1011 12.6367 35.1011H39.6681Z" fill="#FFE600"/>
<path d="M37.5361 35.1011C37.5361 39.1247 34.2591 42.3968 30.2294 42.3968H7.46289C7.46289 38.3732 10.7399 35.1011 14.7695 35.1011H37.5361Z" fill="url(#paint1_linear_97_543)"/>
<path d="M34.3381 47.7199C34.3381 51.7435 31.0611 55.0157 27.0315 55.0157H10.6621C10.6621 50.992 13.9391 47.7199 17.9687 47.7199H34.3381Z" fill="#FFE500"/>
<path d="M32.1589 47.7199C32.1589 51.7435 28.8819 55.0157 24.8523 55.0157H12.8418C12.8418 50.992 16.1188 47.7199 20.1484 47.7199H32.1589Z" fill="url(#paint2_linear_97_543)"/>
<path d="M35.7656 7.21748C43.0565 13.6991 44.7028 22.2943 45.0008 27.2104V22.4822V22.4666C45.0008 10.0512 34.9345 0 22.5007 0C21.2778 0 20.0704 0.0939368 18.9102 0.28181C21.607 0.469684 29.1645 1.34643 35.7656 7.21748Z" fill="#FFD600"/>
</g>
<defs>
<linearGradient id="paint0_linear_97_543" x1="7.08879" y1="36.859" x2="37.8654" y2="6.03659" gradientUnits="userSpaceOnUse">
<stop stop-color="#FFD600"/>
<stop offset="1" stop-color="#FFC700"/>
</linearGradient>
<linearGradient id="paint1_linear_97_543" x1="7.46584" y1="38.7473" x2="37.5331" y2="38.7473" gradientUnits="userSpaceOnUse">
<stop stop-color="#FFE600"/>
<stop offset="1" stop-color="#FFD600"/>
</linearGradient>
<linearGradient id="paint2_linear_97_543" x1="12.8344" y1="51.3608" x2="32.1663" y2="51.3608" gradientUnits="userSpaceOnUse">
<stop stop-color="#FFC700"/>
<stop offset="1" stop-color="#FFE600"/>
</linearGradient>
<clipPath id="clip0_97_543">
<rect width="45" height="55" fill="white"/>
</clipPath>
</defs>
</svg>
