<svg width="72" height="72" viewBox="0 0 72 72" fill="none" xmlns="http://www.w3.org/2000/svg">
<path d="M46.4999 41.9999H44.1299L43.2899 41.1899C45.1648 39.0118 46.535 36.4462 47.3026 33.6768C48.0702 30.9073 48.2161 28.0024 47.7299 25.1699C46.3199 16.8299 39.3599 10.1699 30.9599 9.14992C28.0068 8.77632 25.0073 9.08324 22.191 10.0472C19.3747 11.0111 16.8163 12.6066 14.7114 14.7114C12.6066 16.8163 11.0111 19.3747 10.0472 22.191C9.08324 25.0073 8.77632 28.0068 9.14992 30.9599C10.1699 39.3599 16.8299 46.3199 25.1699 47.7299C28.0024 48.2161 30.9073 48.0701 33.6768 47.3026C36.4462 46.535 39.0118 45.1648 41.1899 43.2899L41.9999 44.1299V46.4999L54.7499 59.2499C55.9799 60.4799 57.9899 60.4799 59.2199 59.2499C60.4499 58.0199 60.4499 56.0099 59.2199 54.7799L46.4999 41.9999ZM28.4999 41.9999C21.0299 41.9999 14.9999 35.9699 14.9999 28.4999C14.9999 21.0299 21.0299 14.9999 28.4999 14.9999C35.9699 14.9999 41.9999 21.0299 41.9999 28.4999C41.9999 35.9699 35.9699 41.9999 28.4999 41.9999Z" fill="url(#paint0_linear_85_264)"/>
<defs>
<linearGradient id="paint0_linear_85_264" x1="34.569" y1="8.99561" x2="34.569" y2="60.1724" gradientUnits="userSpaceOnUse">
<stop stop-color="#DCE00F"/>
<stop offset="1" stop-color="#994242"/>
</linearGradient>
</defs>
</svg>
