<svg width="40" height="20" viewBox="0 0 40 20" fill="none" xmlns="http://www.w3.org/2000/svg">
<rect x="28.1936" y="6.35284" width="5.07022" height="13.6474" fill="#005EEE"/>
<path d="M5.23012 14.9977V1.04358L1.12053 4.03875C0.415339 4.55272 0 5.36139 0 6.22044V17.2439C0 18.7477 1.24886 19.9667 2.7894 19.9667H10.897C11.4748 19.9667 12.0384 19.7915 12.5099 19.4653L18.9679 14.9977H5.23012Z" fill="#005EEE"/>
<path d="M11.1218 0H6.57861V13.6296H19.8675V0H15.3243V9.19719H11.1218V0Z" fill="#005EEE"/>
<path d="M21.615 0H26.7261H35.5931C38.0267 0 39.9994 1.92258 39.9994 4.29421V14.211C39.9994 14.7471 39.7494 15.2541 39.3198 15.589L34.8688 19.0592V4.82364H26.7261V9.19538C26.7261 9.72353 26.4834 10.2239 26.0646 10.5591L21.615 13.5913V0Z" fill="#005EEE"/>
</svg>
