<svg width="40" height="20" viewBox="0 0 40 20" fill="none" xmlns="http://www.w3.org/2000/svg">
<rect x="28.1934" y="6.35284" width="5.07022" height="13.6474" fill="#22B573"/>
<path d="M5.23012 14.9977V1.04358L1.12053 4.03875C0.415339 4.55272 0 5.36139 0 6.22044V17.2439C0 18.7477 1.24886 19.9667 2.7894 19.9667H10.897C11.4748 19.9667 12.0384 19.7915 12.5099 19.4653L18.9679 14.9977H5.23012Z" fill="white"/>
<path d="M11.1218 0H6.57861V13.6296H19.8675V0H15.3243V9.19719H11.1218V0Z" fill="#22B573"/>
<path d="M21.6152 0H26.7263H35.5934C38.0269 0 39.9996 1.92258 39.9996 4.29421V14.211C39.9996 14.7471 39.7496 15.2541 39.32 15.589L34.8691 19.0592V4.82364H26.7263V9.19538C26.7263 9.72353 26.4836 10.2239 26.0648 10.5591L21.6152 13.5913V0Z" fill="white"/>
</svg>
